# xmcd CD database file
#
# Track frame offsets:
#	150
#	18207
#	42978
#	84349
#	99700
#	124484
#	144315
#	169325
#	203333
#	227150
#	254948
#	275298
#	297339
#
# Disc length: 4526 seconds
#
# Revision: 0
# Processed by: cddbd v1.5.1PL2 Copyright (c) Steve Scherf et al.
# Submitted via: CDex 1.51
#
DISCID=bb11ac0d
DTITLE=Pat Ramsey and The Blues Disciples - Live At The Big Bend Blues Bash
DYEAR=2005
DGENRE=Blues
TTITLE0=Dog House Blues
TTITLE1=I Need Money
TTITLE2=Love Her With A Feeling
TTITLE3=Whammer Jammer
TTITLE4=Walkin' By Myself
TTITLE5=Too Many Drivers
TTITLE6=Build Me A Woman
TTITLE7=Allergic To Work
TTITLE8=Dead Shrimp Blues
TTITLE9=Jammin' In The Jungle
TTITLE10=Highway 49
TTITLE11=Highway 61 (a la Johnny Winter)
TTITLE12=Willie's Boogie (A Tribute To Will Ainsworth)
EXTD=YEAR: 2005
EXTT0=
EXTT1=
EXTT2=
EXTT3=
EXTT4=
EXTT5=
EXTT6=
EXTT7=
EXTT8=
EXTT9=
EXTT10=
EXTT11=
EXTT12=
PLAYORDER=
